<svg xmlns="http://www.w3.org/2000/svg" width="64" height="54" fill="none" xmlns:v="https://vecta.io/nano"><path d="M52.375 42.7517V23.2279C52.375 21.5854 51.0124 20.2539 49.3316 20.2539H35M52.375 42.7517V50.0266C52.375 51.6691 51.0124 53.0006 49.3316 53.0006H48.9158M52.375 42.7517L47.4104 38.9729C45.5878 37.5858 43.0324 37.5911 41.2159 38.9857L38.4435 41.1143M18.8638 42.3423V50.0266C18.8638 51.6691 20.2264 53.0006 21.9072 53.0006H48.9158M18.8638 42.3423L27.7768 34.2C29.03 33.0552 31.0034 33.1482 32.138 34.4057L48.9158 53.0006M18.8638 42.3423V33.7472M18.8638 23.2279C18.8638 21.5854 20.2264 20.2539 21.9072 20.2539H35M18.8638 23.2279V33.7472M18.8638 23.2279H6.5M35 20.2539V5.56201C35 3.3288 33.1714 1.52813 30.9385 1.56249L6.43847 1.93941C4.25358 1.97302 2.5 3.75379 2.5 5.93893V29.7472C2.5 31.9564 4.29086 33.7472 6.5 33.7472H18.8638M6.5 10H11M15 10H31M31 16.5H6.5M39.3218 6.81892C42.4965 6.38576 48.9075 7.40369 49.1533 14.9408M49.1533 14.9408L45.7737 12.3418M49.1533 14.9408L50.9967 10.7174M44.7242 29.6539C44.7242 31.9146 42.8494 33.7472 40.5367 33.7472C38.224 33.7472 36.3491 31.9146 36.3491 29.6539C36.3491 27.3932 38.224 25.5605 40.5367 25.5605C42.8494 25.5605 44.7242 27.3932 44.7242 29.6539Z" stroke="url(#A)" stroke-width="1.4" stroke-linecap="round" stroke-linejoin="round"/><defs><linearGradient id="A" x1="3.275" y1="27.25" x2="55.539" y2="25.697" gradientUnits="userSpaceOnUse"><stop stop-color="#6c79f1"/><stop offset="1" stop-color="#f30b92"/></linearGradient></defs></svg>